# xmcd
#
# Track frame offsets:
#	150
#	14892
#	31811
#	49045
#	62814
#	76314
#	91529
#	107041
#	120510
#	139210
#	154562
#	167694
#	181608
#	199068
#	214982
#	231909
#
# Disc length: 3292 seconds
#
# Revision: 0
# Processed by: cddbd v1.5.2PL0 Copyright (c) Steve Scherf et al.
# Submitted via: audiograbber 1.83.01
#
DISCID=cd0cda10
DTITLE=Amigos - Sehnsucht die wie Feuer brennt
DYEAR=2009
DGENRE=Schlager
TTITLE0=Ich Bin Dem Himmel Nah
TTITLE1=Zwei Goldene Ringe
TTITLE2=Weisse Rosen Blühen In Athen
TTITLE3=Sehnsucht Die Wie Feuer Brennt
TTITLE4=Ein Kleines Herz
TTITLE5=Den Sternen Nah
TTITLE6=Juanita
TTITLE7=Wir Hörn Niemals Auf Zu Singen
TTITLE8=Vielen Dank Mutter
TTITLE9=Weil Du Ein Engel Bist
TTITLE10=Meine Liebe Ist Ein Teil  Von Mir
TTITLE11=Diese Nacht Wird Schön
TTITLE12=Jede Nacht Träume Ich Von Der Heimat
TTITLE13=Wie Ein Einsamer Wolf
TTITLE14=Meine Tür Steht Immer Offen
TTITLE15=Amigos - Ein Danke An Unsere Fans
EXTD=
EXTT0=
EXTT1=
EXTT2=
EXTT3=
EXTT4=
EXTT5=
EXTT6=
EXTT7=
EXTT8=
EXTT9=
EXTT10=
EXTT11=
EXTT12=
EXTT13=
EXTT14=
EXTT15=
PLAYORDER=
